Coordinates
version=1
nRows=24
nColumns=24
inDegrees=yes

Units are S.I. units (second, meters, Newtons, ...)
If the header above contains a line with 'inDegrees', this indicates whether rotational values are in degrees (yes) or radians (no).

endheader
time	pelvis_tilt	pelvis_list	pelvis_rotation	pelvis_tx	pelvis_ty	pelvis_tz	hip_flexion_r	hip_adduction_r	hip_rotation_r	knee_angle_r	ankle_angle_r	subtalar_angle_r	mtp_angle_r	hip_flexion_l	hip_adduction_l	hip_rotation_l	knee_angle_l	ankle_angle_l	subtalar_angle_l	mtp_angle_l	lumbar_extension	lumbar_bending	lumbar_rotation
      0.61700000	      9.62376061	      5.58380278	      1.13752799	      0.59162026	      0.97098236	     -0.01628514	     14.23717363	     -9.48659774	     -5.95959338	     -1.98870832	     -2.22153016	      6.70591501	      0.00000000	    -28.97536066	      5.47151915	    -10.20135157	     -2.33226316	      5.62644547	     23.72237465	      0.00000000	    -26.83059355	     -4.21880925	     -8.97278019
      0.63300000	      9.86073361	      5.52263302	      1.79391276	      0.59274901	      0.96927597	     -0.01431846	     14.84796164	     -9.29910655	     -5.82626596	     -5.17489461	     -2.61353138	      5.15203119	      0.00000000	    -29.67775717	      4.54542006	     -9.74818262	     -3.74192188	      5.51698412	     24.02070095	      0.00000000	    -27.04447567	     -3.69691549	     -9.39001506
      0.65000000	      9.70465975	      5.50962055	      2.31716193	      0.59416428	      0.96732118	     -0.01182879	     16.01827311	     -9.12144825	     -5.79733609	     -8.92414110	     -3.47347339	      3.51562118	      0.00000000	    -29.68940774	      3.71777965	     -9.52178946	     -5.65686217	      5.46430612	     24.83060632	      0.00000000	    -26.78047711	     -3.32288622	     -9.77267437
      0.66700000	      9.58092835	      5.51219541	      2.76228991	      0.59593033	      0.96639899	     -0.00958971	     16.87157357	     -9.02846044	     -5.73535571	    -12.28275696	     -4.79910688	      2.37313108	      0.00000000	    -29.51043259	      3.05487454	     -9.06161065	     -7.92888559	      4.99519055	     25.08179964	      0.00000000	    -26.52762174	     -2.88486669	     -9.93830393
      0.68300000	      9.28951291	      5.71406024	      2.84560970	      0.59694105	      0.96548879	     -0.00664128	     18.35659755	     -9.09992657	     -5.32198484	    -16.42303072	     -5.43839957	      1.52797413	      0.00000000	    -28.69265034	      2.76637953	     -8.52583478	    -10.90651180	      4.25672363	     24.96068270	      0.00000000	    -26.15160546	     -2.82366787	     -9.79439037
      0.70000000	      9.22274060	      5.25250428	      3.31327761	      0.59994283	      0.96601869	     -0.00384965	     18.91404859	     -8.53921348	     -5.21207435	    -19.82726537	     -5.75893122	      0.67610272	      0.00000000	    -27.75811816	      1.52956442	     -8.05942005	    -14.51274689	      3.01088596	     25.04662035	      0.00000000	    -25.93139624	     -1.98765229	     -9.82637445
      0.71700000	      9.50958525	      4.57630879	      3.84542216	      0.60314235	      0.96751948	     -0.00101807	     18.29673841	     -7.78264530	     -5.40443011	    -22.00707001	     -5.62375617	      0.42105278	      0.00000000	    -26.73256863	     -0.04373485	     -7.54893681	    -18.73556221	      1.23437795	     24.98413989	      0.00000000	    -25.93050167	     -0.81669448	     -9.87198364
      0.73300000	      9.26424834	      4.28250497	      4.14686566	      0.60526364	      0.96821106	      0.00243195	     18.41263816	     -7.44558178	     -5.68093157	    -24.24942623	     -5.26235166	      0.64920668	      0.00000000	    -24.11230464	     -1.11034712	     -6.91320923	    -24.52801822	     -0.87538789	     24.11773535	      0.00000000	    -25.48871945	     -0.30413903	     -9.64512340
      0.75000000	      8.77961487	      3.63632013	      4.35072994	      0.60735278	      0.96871267	      0.00589671	     18.30800361	     -6.80035510	     -6.38930714	    -25.69242304	     -4.44714566	      1.36164593	      0.00000000	    -20.73256199	     -2.45971627	     -6.63525905	    -30.90356788	     -3.42034940	     22.78566231	      0.00000000	    -24.70946841	      0.52866041	     -9.73351875
      0.76700000	      8.01107446	      2.82821507	      4.54868639	      0.60847434	      0.96921389	      0.00924796	     18.32814548	     -5.87496912	     -6.86909271	    -26.70671694	     -3.31373583	      1.47927438	      0.00000000	    -16.27912688	     -4.03454067	     -6.57595025	    -38.07235896	     -6.72516150	     21.01119412	      0.00000000	    -23.78361999	      1.45772729	     -9.11279611
      0.78300000	      7.34927042	      1.66648254	      4.62588092	      0.60851586	      0.96981051	      0.01258264	     17.91683381	     -4.50779249	     -7.44094480	    -26.91849729	     -2.34058360	      1.85813281	      0.00000000	    -11.83759331	     -5.74264489	     -6.43727053	    -44.83089217	     -9.94801344	     18.06996087	      0.00000000	    -22.96609945	      2.72202865	     -8.38122790
      0.80000000	      6.92016254	      0.25552953	      4.43481365	      0.60881911	      0.97066723	      0.01621410	     17.20116985	     -2.61275877	     -7.57081447	    -26.93356066	     -1.37549171	      1.39770321	      0.00000000	     -7.51947213	     -7.79471349	     -6.70943817	    -51.30184843	    -13.05467037	     14.97500512	      0.00000000	    -22.36046339	      4.14188059	     -7.20413687
      0.81700000	      6.71618260	     -0.91884258	      4.37631895	      0.60849322	      0.97242829	      0.01962018	     15.81432025	     -0.98474909	     -7.76330863	    -26.15003820	     -0.50099303	      1.28675059	      0.00000000	     -3.75410425	     -9.36311864	     -6.50105065	    -56.61410048	    -14.68778154	     11.42902907	      0.00000000	    -21.99924631	      5.33347462	     -6.58147444
      0.83300000	      6.68549071	     -1.87554309	      4.13090226	      0.60841262	      0.97496321	      0.02276151	     14.15359691	      0.48480865	     -7.66069130	    -25.19660940	      0.21281080	      1.13910742	      0.00000000	     -0.42502405	    -10.62150215	     -6.50310515	    -61.03022076	    -15.03540028	      8.14715357	      0.00000000	    -21.88368350	      6.25716008	     -5.49892231
      0.85000000	      6.61685282	     -2.63038296	      3.75247312	      0.60784515	      0.97768240	      0.02601219	     12.35229750	      1.80282155	     -7.29173280	    -23.83978303	      0.72568738	      0.76140481	      0.00000000	      2.84310578	    -11.51063615	     -6.52869296	    -64.68337923	    -14.38939065	      5.02559223	      0.00000000	    -21.84640036	      6.85287279	     -4.48762062
      0.86700000	      6.98860036	     -3.05741357	      3.39286643	      0.60796639	      0.98125061	      0.02862717	     10.01522131	      2.63061829	     -7.03967943	    -22.56684170	      1.32262909	      1.13147900	      0.00000000	      5.22193594	    -11.97650153	     -6.60711571	    -67.26399297	    -12.99211729	      2.88007588	      0.00000000	    -22.12538923	      7.17877800	     -3.46103398
      0.88300000	      7.32288612	     -3.49657298	      3.12440316	      0.60751501	      0.98490058	      0.03105129	      7.37646532	      3.50293707	     -6.71233821	    -20.52590348	      1.63000522	      1.11242012	      0.00000000	      7.59822972	    -12.36127074	     -6.41090886	    -69.25163631	    -11.29719549	      2.16864697	      0.00000000	    -22.51415727	      7.50449726	     -2.66227902
      0.90000000	      7.98099629	     -3.87954715	      2.75132483	      0.60823464	      0.98859752	      0.03348617	      4.27019457	      4.32341384	     -6.16772468	    -18.42762208	      1.84503336	      1.11445145	      0.00000000	      9.30643627	    -12.72543223	     -6.24740227	    -70.54134381	     -9.56204266	      3.12906489	      0.00000000	    -23.11562949	      7.65446384	     -1.75934033
      0.91700000	      8.77281196	     -4.08949518	      2.49076178	      0.60822380	      0.99208298	      0.03506986	      1.05590070	      4.79586343	     -5.87553038	    -16.31070562	      1.99561753	      1.70546192	      0.00000000	     10.69276657	    -12.76003999	     -5.99904443	    -71.05431388	     -7.85613837	      4.65959202	      0.00000000	    -23.88141092	      7.78370781	     -1.25746278
      0.93300000	      9.34063289	     -4.12462317	      2.08298826	      0.60842223	      0.99528235	      0.03670059	     -1.93103238	      5.01187670	     -5.76152493	    -14.23458748	      2.06673834	      2.24672920	      0.00000000	     12.04973987	    -12.50588390	     -5.89050564	    -70.67946830	     -6.61247115	      6.15183078	      0.00000000	    -24.44297421	      7.62938891	     -0.10622401
      0.95000000	      9.91432209	     -3.94958405	      1.28874051	      0.60739879	      0.99779580	      0.03880953	     -4.54961172	      4.96948510	     -4.94997664	    -12.71116455	      2.29308131	      2.38474880	      0.00000000	     13.12809656	    -12.06609233	     -6.25422979	    -69.49376284	     -5.61641076	      7.38223176	      0.00000000	    -25.15514987	      7.06050360	      0.86161373
      0.96700000	     10.37007289	     -3.82690365	      0.84947548	      0.60649939	      0.99970310	      0.04018357	     -7.06613541	      4.88411068	     -4.69113053	    -11.12980944	      2.42528814	      2.99515103	      0.00000000	     14.25799460	    -11.63477777	     -6.41143700	    -67.64871868	     -4.82038935	      8.23700773	      0.00000000	    -25.67199017	      6.71071061	      1.25906942
      0.98300000	     10.94154033	     -3.68420509	      0.43615943	      0.60651767	      1.00143929	      0.04152573	     -9.82386526	      4.78277327	     -4.62387929	     -9.50116757	      2.40556188	      3.27432956	      0.00000000	     14.87320137	    -11.17614294	     -6.68190994	    -65.01015437	     -4.03280869	      8.67000948	      0.00000000	    -26.20428375	      6.32118670	      1.61380266
      1.00000000	     11.53629255	     -3.39866377	      0.27956642	      0.60519229	      1.00304603	      0.04252699	    -12.37411726	      4.59098393	     -4.29488149	     -8.04403800	      2.34470966	      3.07652166	      0.00000000	     15.29059931	    -10.46276020	     -6.81356771	    -61.59759488	     -3.46255040	      8.51384677	      0.00000000	    -26.92464569	      5.84827795	      1.95265918
